<svg fill="none" height="799" viewBox="0 0 627 799" width="627" xmlns="http://www.w3.org/2000/svg" xmlns:xlink="http://www.w3.org/1999/xlink"><mask id="a" fill="#fff"><path clip-rule="evenodd" d="m337.822 512c.117.984.178 1.985.178 3 0 13.807-11.193 25-25 25s-25-11.193-25-25c0-1.015.061-2.016.178-3z" fill="#fff" fill-rule="evenodd"/></mask><path clip-rule="evenodd" d="m337.822 512c.117.984.178 1.985.178 3 0 13.807-11.193 25-25 25s-25-11.193-25-25c0-1.015.061-2.016.178-3z" fill="#f9d6c2" fill-rule="evenodd"/><path d="m337.822 512 4.964-.594-.526-4.406h-4.438zm-49.644 0v-5h-4.438l-.526 4.406zm44.679.594c.094.787.143 1.59.143 2.406h10c0-1.214-.072-2.414-.214-3.594zm.143 2.406c0 11.046-8.954 20-20 20v10c16.569 0 30-13.431 30-30zm-20 20c-11.046 0-20-8.954-20-20h-10c0 16.569 13.431 30 30 30zm-20-20c0-.816.049-1.619.143-2.406l-9.929-1.188c-.142 1.18-.214 2.38-.214 3.594zm-4.822 2h49.644v-10h-49.644z" fill="#daa78b" mask="url(#a)"/><path d="m288 505h50v13h-50z" fill="#f9d6c2"/></svg>